<mxfile host="drawio-plugin" modified="2021-09-30T03:20:37.734Z" agent="5.0 (X11; Linux x86_64) AppleWebKit/537.36 (KHTML, like Gecko) Chrome/89.0.4389.114 Safari/537.36" etag="7aORT4eB2cb81YqcJlzN" version="14.7.4" type="embed"><diagram id="23iRSUPoRavnBvh4doch" name="Page-1"><mxGraphModel dx="1380" dy="729" grid="1" gridSize="10" guides="1" tooltips="1" connect="1" arrows="1" fold="1" page="1" pageScale="1" pageWidth="1920" pageHeight="1200" math="0" shadow="0"><root><mxCell id="0"/><mxCell id="1" parent="0"/><mxCell id="2" value="权限管理" style="ellipse;whiteSpace=wrap;html=1;" vertex="1" parent="1"><mxGeometry x="100" y="110" width="140" height="70" as="geometry"/></mxCell><mxCell id="3" value="工单处理" style="ellipse;whiteSpace=wrap;html=1;" vertex="1" parent="1"><mxGeometry x="360" y="110" width="140" height="70" as="geometry"/></mxCell><mxCell id="4" value="流程审批" style="ellipse;whiteSpace=wrap;html=1;" vertex="1" parent="1"><mxGeometry x="640" y="110" width="140" height="70" as="geometry"/></mxCell></root></mxGraphModel></diagram></mxfile>